<svg width="145" height="52" viewBox="0 0 145 52" fill="none" xmlns="http://www.w3.org/2000/svg">
<path d="M15.7874 44.733L15.9224 43.482H15.8684L15.4814 44.49L14.1404 46.839H13.7444L12.3314 44.481L11.9354 43.482H11.8904L12.0704 44.724V48H10.9004V41.7H12.0254L13.7084 44.58L14.0054 45.3H14.0414L14.3114 44.562L15.9044 41.7H17.0204V48H15.7874V44.733ZM18.6213 44.85C18.6213 43.8 18.8523 42.993 19.3143 42.429C19.7763 41.859 20.4363 41.574 21.2943 41.574C21.7443 41.574 22.1373 41.652 22.4733 41.808C22.8093 41.964 23.0883 42.186 23.3103 42.474C23.5323 42.762 23.6973 43.107 23.8053 43.509C23.9133 43.911 23.9673 44.358 23.9673 44.85C23.9673 45.9 23.7333 46.71 23.2653 47.28C22.8033 47.844 22.1463 48.126 21.2943 48.126C20.8383 48.126 20.4423 48.048 20.1063 47.892C19.7703 47.736 19.4913 47.514 19.2693 47.226C19.0533 46.938 18.8913 46.593 18.7833 46.191C18.6753 45.789 18.6213 45.342 18.6213 44.85ZM19.9173 44.85C19.9173 45.168 19.9443 45.462 19.9983 45.732C20.0523 45.996 20.1333 46.224 20.2413 46.416C20.3553 46.608 20.4993 46.758 20.6733 46.866C20.8473 46.974 21.0543 47.028 21.2943 47.028C21.7323 47.028 22.0713 46.857 22.3113 46.515C22.5513 46.173 22.6713 45.618 22.6713 44.85C22.6713 44.544 22.6443 44.259 22.5903 43.995C22.5423 43.731 22.4643 43.5 22.3563 43.302C22.2483 43.104 22.1073 42.951 21.9333 42.843C21.7593 42.729 21.5463 42.672 21.2943 42.672C20.8563 42.672 20.5173 42.849 20.2773 43.203C20.0373 43.551 19.9173 44.1 19.9173 44.85ZM25.5693 41.7C25.6953 41.682 25.8363 41.667 25.9923 41.655C26.1543 41.643 26.3193 41.634 26.4873 41.628C26.6553 41.622 26.8173 41.619 26.9733 41.619C27.1353 41.613 27.2793 41.61 27.4053 41.61C27.9633 41.61 28.4403 41.688 28.8363 41.844C29.2323 42 29.5533 42.219 29.7993 42.501C30.0453 42.783 30.2253 43.119 30.3393 43.509C30.4533 43.899 30.5103 44.328 30.5103 44.796C30.5103 45.222 30.4563 45.633 30.3483 46.029C30.2403 46.425 30.0603 46.776 29.8083 47.082C29.5563 47.388 29.2233 47.634 28.8093 47.82C28.4013 48.006 27.8943 48.099 27.2883 48.099C27.1923 48.099 27.0633 48.096 26.9013 48.09C26.7453 48.084 26.5803 48.075 26.4063 48.063C26.2383 48.057 26.0763 48.048 25.9203 48.036C25.7643 48.03 25.6473 48.021 25.5693 48.009V41.7ZM27.5043 42.708C27.3723 42.708 27.2373 42.711 27.0993 42.717C26.9673 42.723 26.8683 42.732 26.8023 42.744V46.965C26.8263 46.971 26.8653 46.977 26.9193 46.983C26.9793 46.983 27.0423 46.986 27.1083 46.992C27.1743 46.992 27.2373 46.995 27.2973 47.001C27.3573 47.001 27.4023 47.001 27.4323 47.001C27.7803 47.001 28.0683 46.941 28.2963 46.821C28.5303 46.695 28.7133 46.53 28.8453 46.326C28.9833 46.122 29.0793 45.888 29.1333 45.624C29.1873 45.354 29.2143 45.078 29.2143 44.796C29.2143 44.55 29.1903 44.304 29.1423 44.058C29.0943 43.806 29.0043 43.581 28.8723 43.383C28.7463 43.185 28.5723 43.023 28.3503 42.897C28.1283 42.771 27.8463 42.708 27.5043 42.708ZM32.1171 41.7H35.8521V42.798H33.3501V44.265H35.6271V45.363H33.3501V46.902H35.8971V48H32.1171V41.7ZM37.54 41.763C37.678 41.739 37.825 41.718 37.981 41.7C38.143 41.676 38.302 41.658 38.458 41.646C38.62 41.634 38.776 41.625 38.926 41.619C39.076 41.613 39.214 41.61 39.34 41.61C39.634 41.61 39.922 41.637 40.204 41.691C40.492 41.745 40.747 41.838 40.969 41.97C41.197 42.102 41.377 42.285 41.509 42.519C41.647 42.747 41.716 43.035 41.716 43.383C41.716 43.899 41.596 44.319 41.356 44.643C41.116 44.967 40.795 45.192 40.393 45.318L40.834 45.597L42.274 48H40.852L39.421 45.534L38.773 45.417V48H37.54V41.763ZM39.43 42.708C39.304 42.708 39.178 42.711 39.052 42.717C38.932 42.723 38.839 42.735 38.773 42.753V44.58H39.295C39.637 44.58 39.91 44.502 40.114 44.346C40.318 44.19 40.42 43.932 40.42 43.572C40.42 43.302 40.336 43.092 40.168 42.942C40 42.786 39.754 42.708 39.43 42.708ZM45.2408 44.715L44.7458 43.725H44.7008L44.8448 44.715V48H43.6748V41.655H44.5748L46.9598 45.012L47.4368 45.975H47.4818L47.3378 45.012V41.7H48.5078V48.045H47.6078L45.2408 44.715ZM52.5869 41.7C52.7129 41.682 52.8539 41.667 53.0099 41.655C53.1719 41.643 53.3369 41.634 53.5049 41.628C53.6729 41.622 53.8349 41.619 53.9909 41.619C54.1529 41.613 54.2969 41.61 54.4229 41.61C54.9809 41.61 55.4579 41.688 55.8539 41.844C56.2499 42 56.5709 42.219 56.8169 42.501C57.0629 42.783 57.2429 43.119 57.3569 43.509C57.4709 43.899 57.5279 44.328 57.5279 44.796C57.5279 45.222 57.4739 45.633 57.3659 46.029C57.2579 46.425 57.0779 46.776 56.8259 47.082C56.5739 47.388 56.2409 47.634 55.8269 47.82C55.4189 48.006 54.9119 48.099 54.3059 48.099C54.2099 48.099 54.0809 48.096 53.9189 48.09C53.7629 48.084 53.5979 48.075 53.4239 48.063C53.2559 48.057 53.0939 48.048 52.9379 48.036C52.7819 48.03 52.6649 48.021 52.5869 48.009V41.7ZM54.5219 42.708C54.3899 42.708 54.2549 42.711 54.1169 42.717C53.9849 42.723 53.8859 42.732 53.8199 42.744V46.965C53.8439 46.971 53.8829 46.977 53.9369 46.983C53.9969 46.983 54.0599 46.986 54.1259 46.992C54.1919 46.992 54.2549 46.995 54.3149 47.001C54.3749 47.001 54.4199 47.001 54.4499 47.001C54.7979 47.001 55.0859 46.941 55.3139 46.821C55.5479 46.695 55.7309 46.53 55.8629 46.326C56.0009 46.122 56.0969 45.888 56.1509 45.624C56.2049 45.354 56.2319 45.078 56.2319 44.796C56.2319 44.55 56.2079 44.304 56.1599 44.058C56.1119 43.806 56.0219 43.581 55.8899 43.383C55.7639 43.185 55.5899 43.023 55.3679 42.897C55.1459 42.771 54.8639 42.708 54.5219 42.708ZM59.1347 41.7H62.8697V42.798H60.3677V44.265H62.6447V45.363H60.3677V46.902H62.9147V48H59.1347V41.7ZM67.2756 46.308C67.2756 46.116 67.2036 45.96 67.0596 45.84C66.9216 45.72 66.7446 45.612 66.5286 45.516C66.3186 45.414 66.0876 45.312 65.8356 45.21C65.5896 45.102 65.3586 44.973 65.1426 44.823C64.9326 44.667 64.7556 44.475 64.6116 44.247C64.4736 44.019 64.4046 43.728 64.4046 43.374C64.4046 43.068 64.4556 42.804 64.5576 42.582C64.6596 42.354 64.8036 42.165 64.9896 42.015C65.1816 41.865 65.4066 41.754 65.6646 41.682C65.9226 41.61 66.2106 41.574 66.5286 41.574C66.8946 41.574 67.2396 41.607 67.5636 41.673C67.8876 41.733 68.1546 41.823 68.3646 41.943L67.9776 42.978C67.8456 42.894 67.6476 42.819 67.3836 42.753C67.1196 42.681 66.8346 42.645 66.5286 42.645C66.2406 42.645 66.0186 42.702 65.8626 42.816C65.7126 42.93 65.6376 43.083 65.6376 43.275C65.6376 43.455 65.7066 43.605 65.8446 43.725C65.9886 43.845 66.1656 43.956 66.3756 44.058C66.5916 44.16 66.8226 44.265 67.0686 44.373C67.3206 44.481 67.5516 44.613 67.7616 44.769C67.9776 44.919 68.1546 45.108 68.2926 45.336C68.4366 45.558 68.5086 45.837 68.5086 46.173C68.5086 46.509 68.4516 46.8 68.3376 47.046C68.2296 47.286 68.0736 47.487 67.8696 47.649C67.6716 47.811 67.4286 47.931 67.1406 48.009C66.8586 48.087 66.5466 48.126 66.2046 48.126C65.7546 48.126 65.3586 48.084 65.0166 48C64.6746 47.916 64.4226 47.832 64.2606 47.748L64.6566 46.695C64.7226 46.731 64.8066 46.77 64.9086 46.812C65.0166 46.854 65.1366 46.893 65.2686 46.929C65.4006 46.965 65.5386 46.995 65.6826 47.019C65.8326 47.043 65.9856 47.055 66.1416 47.055C66.5076 47.055 66.7866 46.995 66.9786 46.875C67.1766 46.749 67.2756 46.56 67.2756 46.308ZM70.1767 41.7H71.4097V48H70.1767V41.7ZM75.5609 44.715H77.9099V47.523C77.6579 47.733 77.3549 47.886 77.0009 47.982C76.6529 48.078 76.3079 48.126 75.9659 48.126C75.5639 48.126 75.1889 48.063 74.8409 47.937C74.4989 47.811 74.2019 47.616 73.9499 47.352C73.6979 47.082 73.4999 46.74 73.3559 46.326C73.2119 45.912 73.1399 45.42 73.1399 44.85C73.1399 44.256 73.2239 43.752 73.3919 43.338C73.5659 42.918 73.7909 42.579 74.0669 42.321C74.3489 42.057 74.6639 41.868 75.0119 41.754C75.3599 41.634 75.7139 41.574 76.0739 41.574C76.4339 41.574 76.7489 41.601 77.0189 41.655C77.2949 41.709 77.5139 41.766 77.6759 41.826L77.4239 42.861C77.2739 42.801 77.1059 42.756 76.9199 42.726C76.7339 42.69 76.4969 42.672 76.2089 42.672C75.9509 42.672 75.7139 42.711 75.4979 42.789C75.2819 42.867 75.0929 42.996 74.9309 43.176C74.7749 43.35 74.6519 43.575 74.5619 43.851C74.4779 44.127 74.4359 44.463 74.4359 44.859C74.4359 45.237 74.4779 45.564 74.5619 45.84C74.6459 46.11 74.7629 46.335 74.9129 46.515C75.0629 46.689 75.2369 46.818 75.4349 46.902C75.6389 46.986 75.8549 47.028 76.0829 47.028C76.2389 47.028 76.3919 47.01 76.5419 46.974C76.6919 46.932 76.8179 46.872 76.9199 46.794V45.606L75.5609 45.462V44.715ZM81.1089 44.715L80.6139 43.725H80.5689L80.7129 44.715V48H79.5429V41.655H80.4429L82.8279 45.012L83.3049 45.975H83.3499L83.2059 45.012V41.7H84.3759V48.045H83.4759L81.1089 44.715ZM91.173 46.308C91.173 46.116 91.101 45.96 90.957 45.84C90.819 45.72 90.642 45.612 90.426 45.516C90.216 45.414 89.985 45.312 89.733 45.21C89.487 45.102 89.256 44.973 89.04 44.823C88.83 44.667 88.653 44.475 88.509 44.247C88.371 44.019 88.302 43.728 88.302 43.374C88.302 43.068 88.353 42.804 88.455 42.582C88.557 42.354 88.701 42.165 88.887 42.015C89.079 41.865 89.304 41.754 89.562 41.682C89.82 41.61 90.108 41.574 90.426 41.574C90.792 41.574 91.137 41.607 91.461 41.673C91.785 41.733 92.052 41.823 92.262 41.943L91.875 42.978C91.743 42.894 91.545 42.819 91.281 42.753C91.017 42.681 90.732 42.645 90.426 42.645C90.138 42.645 89.916 42.702 89.76 42.816C89.61 42.93 89.535 43.083 89.535 43.275C89.535 43.455 89.604 43.605 89.742 43.725C89.886 43.845 90.063 43.956 90.273 44.058C90.489 44.16 90.72 44.265 90.966 44.373C91.218 44.481 91.449 44.613 91.659 44.769C91.875 44.919 92.052 45.108 92.19 45.336C92.334 45.558 92.406 45.837 92.406 46.173C92.406 46.509 92.349 46.8 92.235 47.046C92.127 47.286 91.971 47.487 91.767 47.649C91.569 47.811 91.326 47.931 91.038 48.009C90.756 48.087 90.444 48.126 90.102 48.126C89.652 48.126 89.256 48.084 88.914 48C88.572 47.916 88.32 47.832 88.158 47.748L88.554 46.695C88.62 46.731 88.704 46.77 88.806 46.812C88.914 46.854 89.034 46.893 89.166 46.929C89.298 46.965 89.436 46.995 89.58 47.019C89.73 47.043 89.883 47.055 90.039 47.055C90.405 47.055 90.684 46.995 90.876 46.875C91.074 46.749 91.173 46.56 91.173 46.308ZM98.4212 42.798H96.5852V48H95.3522V42.798H93.5072V41.7H98.4212V42.798ZM103.204 41.7H104.374V45.768C104.374 46.176 104.32 46.527 104.212 46.821C104.104 47.115 103.954 47.358 103.762 47.55C103.57 47.742 103.336 47.883 103.06 47.973C102.784 48.063 102.481 48.108 102.151 48.108C100.555 48.108 99.7571 47.379 99.7571 45.921V41.7H100.99V45.678C100.99 45.924 101.011 46.134 101.053 46.308C101.101 46.476 101.173 46.614 101.269 46.722C101.365 46.824 101.485 46.899 101.629 46.947C101.773 46.989 101.941 47.01 102.133 47.01C102.511 47.01 102.784 46.905 102.952 46.695C103.12 46.485 103.204 46.146 103.204 45.678V41.7ZM106.147 41.7C106.273 41.682 106.414 41.667 106.57 41.655C106.732 41.643 106.897 41.634 107.065 41.628C107.233 41.622 107.395 41.619 107.551 41.619C107.713 41.613 107.857 41.61 107.983 41.61C108.541 41.61 109.018 41.688 109.414 41.844C109.81 42 110.131 42.219 110.377 42.501C110.623 42.783 110.803 43.119 110.917 43.509C111.031 43.899 111.088 44.328 111.088 44.796C111.088 45.222 111.034 45.633 110.926 46.029C110.818 46.425 110.638 46.776 110.386 47.082C110.134 47.388 109.801 47.634 109.387 47.82C108.979 48.006 108.472 48.099 107.866 48.099C107.77 48.099 107.641 48.096 107.479 48.09C107.323 48.084 107.158 48.075 106.984 48.063C106.816 48.057 106.654 48.048 106.498 48.036C106.342 48.03 106.225 48.021 106.147 48.009V41.7ZM108.082 42.708C107.95 42.708 107.815 42.711 107.677 42.717C107.545 42.723 107.446 42.732 107.38 42.744V46.965C107.404 46.971 107.443 46.977 107.497 46.983C107.557 46.983 107.62 46.986 107.686 46.992C107.752 46.992 107.815 46.995 107.875 47.001C107.935 47.001 107.98 47.001 108.01 47.001C108.358 47.001 108.646 46.941 108.874 46.821C109.108 46.695 109.291 46.53 109.423 46.326C109.561 46.122 109.657 45.888 109.711 45.624C109.765 45.354 109.792 45.078 109.792 44.796C109.792 44.55 109.768 44.304 109.72 44.058C109.672 43.806 109.582 43.581 109.45 43.383C109.324 43.185 109.15 43.023 108.928 42.897C108.706 42.771 108.424 42.708 108.082 42.708ZM112.821 41.7H114.054V48H112.821V41.7ZM115.784 44.85C115.784 43.8 116.015 42.993 116.477 42.429C116.939 41.859 117.599 41.574 118.457 41.574C118.907 41.574 119.3 41.652 119.636 41.808C119.972 41.964 120.251 42.186 120.473 42.474C120.695 42.762 120.86 43.107 120.968 43.509C121.076 43.911 121.13 44.358 121.13 44.85C121.13 45.9 120.896 46.71 120.428 47.28C119.966 47.844 119.309 48.126 118.457 48.126C118.001 48.126 117.605 48.048 117.269 47.892C116.933 47.736 116.654 47.514 116.432 47.226C116.216 46.938 116.054 46.593 115.946 46.191C115.838 45.789 115.784 45.342 115.784 44.85ZM117.08 44.85C117.08 45.168 117.107 45.462 117.161 45.732C117.215 45.996 117.296 46.224 117.404 46.416C117.518 46.608 117.662 46.758 117.836 46.866C118.01 46.974 118.217 47.028 118.457 47.028C118.895 47.028 119.234 46.857 119.474 46.515C119.714 46.173 119.834 45.618 119.834 44.85C119.834 44.544 119.807 44.259 119.753 43.995C119.705 43.731 119.627 43.5 119.519 43.302C119.411 43.104 119.27 42.951 119.096 42.843C118.922 42.729 118.709 42.672 118.457 42.672C118.019 42.672 117.68 42.849 117.44 43.203C117.2 43.551 117.08 44.1 117.08 44.85Z" fill="white"/>
<path d="M2.04 16H5.94V31H2.04V16ZM1.47 11.77C1.47 11.19 1.68 10.7 2.1 10.3C2.54 9.88 3.14 9.67 3.9 9.67C4.66 9.67 5.27 9.88 5.73 10.3C6.21 10.7 6.45 11.19 6.45 11.77C6.45 12.35 6.21 12.84 5.73 13.24C5.27 13.62 4.66 13.81 3.9 13.81C3.14 13.81 2.54 13.62 2.1 13.24C1.68 12.84 1.47 12.35 1.47 11.77ZM22.5166 25.72C22.5166 26.56 22.5266 27.4 22.5466 28.24C22.5666 29.08 22.6566 30.01 22.8166 31.03H20.0266L19.4866 29.08H19.3666C18.9666 29.78 18.3866 30.35 17.6266 30.79C16.8866 31.21 16.0066 31.42 14.9866 31.42C13.1066 31.42 11.6466 30.8 10.6066 29.56C9.56664 28.32 9.04664 26.38 9.04664 23.74C9.04664 21.18 9.62664 19.19 10.7866 17.77C11.9466 16.35 13.6466 15.64 15.8866 15.64C16.5066 15.64 17.0166 15.68 17.4166 15.76C17.8166 15.82 18.2166 15.93 18.6166 16.09V10H22.5166V25.72ZM15.8866 28.12C16.6466 28.12 17.2466 27.94 17.6866 27.58C18.1266 27.2 18.4366 26.66 18.6166 25.96V19.6C18.3366 19.38 18.0266 19.22 17.6866 19.12C17.3466 19 16.9066 18.94 16.3666 18.94C15.2666 18.94 14.4366 19.31 13.8766 20.05C13.3366 20.79 13.0666 22.06 13.0666 23.86C13.0666 25.14 13.2866 26.17 13.7266 26.95C14.1866 27.73 14.9066 28.12 15.8866 28.12ZM37.9385 29.71C37.3385 30.19 36.5185 30.6 35.4785 30.94C34.4585 31.26 33.3685 31.42 32.2085 31.42C29.7885 31.42 28.0185 30.72 26.8985 29.32C25.7785 27.9 25.2185 25.96 25.2185 23.5C25.2185 20.86 25.8485 18.88 27.1085 17.56C28.3685 16.24 30.1385 15.58 32.4185 15.58C33.1785 15.58 33.9185 15.68 34.6385 15.88C35.3585 16.08 35.9985 16.41 36.5585 16.87C37.1185 17.33 37.5685 17.95 37.9085 18.73C38.2485 19.51 38.4185 20.48 38.4185 21.64C38.4185 22.06 38.3885 22.51 38.3285 22.99C38.2885 23.47 38.2185 23.97 38.1185 24.49H29.1185C29.1785 25.75 29.4985 26.7 30.0785 27.34C30.6785 27.98 31.6385 28.3 32.9585 28.3C33.7785 28.3 34.5085 28.18 35.1485 27.94C35.8085 27.68 36.3085 27.42 36.6485 27.16L37.9385 29.71ZM32.3585 18.7C31.3385 18.7 30.5785 19.01 30.0785 19.63C29.5985 20.23 29.3085 21.04 29.2085 22.06H34.7885C34.8685 20.98 34.6985 20.15 34.2785 19.57C33.8785 18.99 33.2385 18.7 32.3585 18.7ZM41.0829 16.87C41.8829 16.51 42.8329 16.23 43.9329 16.03C45.0329 15.81 46.1829 15.7 47.3829 15.7C48.4229 15.7 49.2929 15.83 49.9929 16.09C50.6929 16.33 51.2429 16.68 51.6429 17.14C52.0629 17.6 52.3529 18.15 52.5129 18.79C52.6929 19.43 52.7829 20.15 52.7829 20.95C52.7829 21.83 52.7529 22.72 52.6929 23.62C52.6329 24.5 52.5929 25.37 52.5729 26.23C52.5729 27.09 52.6029 27.93 52.6629 28.75C52.7229 29.55 52.8729 30.31 53.1129 31.03H49.9329L49.3029 28.96H49.1529C48.7529 29.58 48.1929 30.12 47.4729 30.58C46.7729 31.02 45.8629 31.24 44.7429 31.24C44.0429 31.24 43.4129 31.14 42.8529 30.94C42.2929 30.72 41.8129 30.42 41.4129 30.04C41.0129 29.64 40.7029 29.18 40.4829 28.66C40.2629 28.12 40.1529 27.52 40.1529 26.86C40.1529 25.94 40.3529 25.17 40.7529 24.55C41.1729 23.91 41.7629 23.4 42.5229 23.02C43.3029 22.62 44.2229 22.35 45.2829 22.21C46.3629 22.05 47.5629 22 48.8829 22.06C49.0229 20.94 48.9429 20.14 48.6429 19.66C48.3429 19.16 47.6729 18.91 46.6329 18.91C45.8529 18.91 45.0229 18.99 44.1429 19.15C43.2829 19.31 42.5729 19.52 42.0129 19.78L41.0829 16.87ZM46.0329 28.03C46.8129 28.03 47.4329 27.86 47.8929 27.52C48.3529 27.16 48.6929 26.78 48.9129 26.38V24.43C48.2929 24.37 47.6929 24.36 47.1129 24.4C46.5529 24.44 46.0529 24.53 45.6129 24.67C45.1729 24.81 44.8229 25.01 44.5629 25.27C44.3029 25.53 44.1729 25.86 44.1729 26.26C44.1729 26.82 44.3329 27.26 44.6529 27.58C44.9929 27.88 45.4529 28.03 46.0329 28.03ZM62.2657 26.86C62.2657 26.46 62.0957 26.14 61.7557 25.9C61.4157 25.66 60.9957 25.44 60.4957 25.24C59.9957 25.04 59.4457 24.84 58.8457 24.64C58.2457 24.42 57.6957 24.13 57.1957 23.77C56.6957 23.39 56.2757 22.92 55.9357 22.36C55.5957 21.78 55.4257 21.04 55.4257 20.14C55.4257 18.66 55.8657 17.53 56.7457 16.75C57.6257 15.97 58.8957 15.58 60.5557 15.58C61.6957 15.58 62.7257 15.7 63.6457 15.94C64.5657 16.18 65.2857 16.45 65.8057 16.75L64.9357 19.57C64.4757 19.39 63.8957 19.2 63.1957 19C62.4957 18.8 61.7857 18.7 61.0657 18.7C59.9057 18.7 59.3257 19.15 59.3257 20.05C59.3257 20.41 59.4957 20.7 59.8357 20.92C60.1757 21.14 60.5957 21.35 61.0957 21.55C61.5957 21.73 62.1457 21.93 62.7457 22.15C63.3457 22.37 63.8957 22.66 64.3957 23.02C64.8957 23.36 65.3157 23.81 65.6557 24.37C65.9957 24.93 66.1657 25.65 66.1657 26.53C66.1657 28.05 65.6757 29.25 64.6957 30.13C63.7357 30.99 62.2857 31.42 60.3457 31.42C59.2857 31.42 58.2857 31.28 57.3457 31C56.4257 30.74 55.6757 30.43 55.0957 30.07L56.1757 27.16C56.6357 27.42 57.2457 27.68 58.0057 27.94C58.7657 28.18 59.5457 28.3 60.3457 28.3C60.9257 28.3 61.3857 28.19 61.7257 27.97C62.0857 27.75 62.2657 27.38 62.2657 26.86ZM67.152 16H69.222V13.18L73.122 12.07V16H76.782V19.3H73.122V25.06C73.122 26.1 73.222 26.85 73.422 27.31C73.642 27.75 74.042 27.97 74.622 27.97C75.022 27.97 75.362 27.93 75.642 27.85C75.942 27.77 76.272 27.65 76.632 27.49L77.322 30.49C76.782 30.75 76.152 30.97 75.432 31.15C74.712 31.33 73.982 31.42 73.242 31.42C71.862 31.42 70.842 31.07 70.182 30.37C69.542 29.65 69.222 28.48 69.222 26.86V19.3H67.152V16ZM82.9209 16V24.52C82.9209 25.74 83.0609 26.62 83.3409 27.16C83.6409 27.7 84.2109 27.97 85.0509 27.97C85.7909 27.97 86.4009 27.75 86.8809 27.31C87.3809 26.87 87.7509 26.33 87.9909 25.69V16H91.8909V26.44C91.8909 27.26 91.9309 28.07 92.0109 28.87C92.0909 29.65 92.2109 30.36 92.3709 31H89.4309L88.7409 28.78H88.6209C88.1609 29.54 87.5209 30.17 86.7009 30.67C85.8809 31.17 84.9109 31.42 83.7909 31.42C83.0309 31.42 82.3509 31.32 81.7509 31.12C81.1509 30.92 80.6509 30.59 80.2509 30.13C79.8509 29.67 79.5409 29.05 79.3209 28.27C79.1209 27.49 79.0209 26.51 79.0209 25.33V16H82.9209ZM108.064 25.72C108.064 26.56 108.074 27.4 108.094 28.24C108.114 29.08 108.204 30.01 108.364 31.03H105.574L105.034 29.08H104.914C104.514 29.78 103.934 30.35 103.174 30.79C102.434 31.21 101.554 31.42 100.534 31.42C98.6535 31.42 97.1935 30.8 96.1535 29.56C95.1135 28.32 94.5935 26.38 94.5935 23.74C94.5935 21.18 95.1735 19.19 96.3335 17.77C97.4935 16.35 99.1935 15.64 101.434 15.64C102.054 15.64 102.564 15.68 102.964 15.76C103.364 15.82 103.764 15.93 104.164 16.09V10H108.064V25.72ZM101.434 28.12C102.194 28.12 102.794 27.94 103.234 27.58C103.674 27.2 103.984 26.66 104.164 25.96V19.6C103.884 19.38 103.574 19.22 103.234 19.12C102.894 19 102.454 18.94 101.914 18.94C100.814 18.94 99.9835 19.31 99.4235 20.05C98.8835 20.79 98.6135 22.06 98.6135 23.86C98.6135 25.14 98.8335 26.17 99.2735 26.95C99.7335 27.73 100.454 28.12 101.434 28.12ZM111.815 16H115.715V31H111.815V16ZM111.245 11.77C111.245 11.19 111.455 10.7 111.875 10.3C112.315 9.88 112.915 9.67 113.675 9.67C114.435 9.67 115.045 9.88 115.505 10.3C115.985 10.7 116.225 11.19 116.225 11.77C116.225 12.35 115.985 12.84 115.505 13.24C115.045 13.62 114.435 13.81 113.675 13.81C112.915 13.81 112.315 13.62 111.875 13.24C111.455 12.84 111.245 12.35 111.245 11.77ZM118.822 23.5C118.822 20.96 119.442 19.01 120.682 17.65C121.922 16.27 123.662 15.58 125.902 15.58C127.102 15.58 128.142 15.77 129.022 16.15C129.902 16.53 130.632 17.07 131.212 17.77C131.792 18.45 132.222 19.28 132.502 20.26C132.802 21.24 132.952 22.32 132.952 23.5C132.952 26.04 132.332 28 131.092 29.38C129.872 30.74 128.142 31.42 125.902 31.42C124.702 31.42 123.662 31.23 122.782 30.85C121.902 30.47 121.162 29.94 120.562 29.26C119.982 28.56 119.542 27.72 119.242 26.74C118.962 25.76 118.822 24.68 118.822 23.5ZM122.842 23.5C122.842 24.16 122.902 24.77 123.022 25.33C123.142 25.89 123.322 26.38 123.562 26.8C123.802 27.22 124.112 27.55 124.492 27.79C124.892 28.01 125.362 28.12 125.902 28.12C126.922 28.12 127.682 27.75 128.182 27.01C128.682 26.27 128.932 25.1 128.932 23.5C128.932 22.12 128.702 21.01 128.242 20.17C127.782 19.31 127.002 18.88 125.902 18.88C124.942 18.88 124.192 19.24 123.652 19.96C123.112 20.68 122.842 21.86 122.842 23.5Z" fill="white"/>
</svg>
